{
  "accessors": [
    {
      "bufferView": 2,
      "componentType": 5126,
      "count": 2426,
      "max": [
        0.5932999849319458,
        0.1462000012397766,
        0.6492999792098999
      ],
      "min": [
        0.0,
        0.0,
        0.0
      ],
      "type": "VEC3"
    },
    {
      "bufferView": 2,
      "byteOffset": 29112,
      "componentType": 5126,
      "count": 2426,
      "max": [
        0.9982686042785645,
        0.9999212026596069,
        0.9999841451644897
      ],
      "min": [
        -0.9999306201934814,
        -0.9999778270721436,
        -0.9966243505477905
      ],
      "type": "VEC3"
    },
    {
      "bufferView": 1,
      "componentType": 5126,
      "count": 2426,
      "max": [
        0.9912999868392944,
        0.9779999852180481
      ],
      "min": [
        0.013500000350177288,
        0.041099999099969864
      ],
      "type": "VEC2"
    },
    {
      "bufferView": 0,
      "componentType": 5125,
      "count": 13038,
      "type": "SCALAR"
    },
    {
      "bufferView": 2,
      "byteOffset": 58224,
      "componentType": 5126,
      "count": 508,
      "max": [
        0.5012999773025513,
        0.10260000079870224,
        0.6513000130653381
      ],
      "min": [
        0.08219999074935913,
        0.02879999950528145,
        0.5144000053405762
      ],
      "type": "VEC3"
    },
    {
      "bufferView": 2,
      "byteOffset": 64320,
      "componentType": 5126,
      "count": 508,
      "max": [
        0.995445191860199,
        0.9999369382858276,
        0.24319547414779663
      ],
      "min": [
        -0.995445191860199,
        -0.999944806098938,
        -0.9093133807182312
      ],
      "type": "VEC3"
    },
    {
      "bufferView": 0,
      "byteOffset": 52152,
      "componentType": 5125,
      "count": 2046,
      "type": "SCALAR"
    },
    {
      "bufferView": 2,
      "byteOffset": 70416,
      "componentType": 5126,
      "count": 2352,
      "max": [
        0.5019999742507935,
        0.10260000079870224,
        0.7723000049591064
      ],
      "min": [
        0.08149999380111694,
        0.02810000069439411,
        0.5144000053405762
      ],
      "type": "VEC3"
    },
    {
      "bufferView": 2,
      "byteOffset": 98640,
      "componentType": 5126,
      "count": 2352,
      "max": [
        1.0,
        0.9999980926513672,
        1.0
      ],
      "min": [
        -1.0,
        -0.9999967813491821,
        -1.0
      ],
      "type": "VEC3"
    },
    {
      "bufferView": 0,
      "byteOffset": 60336,
      "componentType": 5125,
      "count": 13266,
      "type": "SCALAR"
    }
  ],
  "asset": {
    "extras": {
      "author": "feisalkassim (https://sketchfab.com/FeisalKassim)",
      "license": "CC-BY-4.0 (http://creativecommons.org/licenses/by/4.0/)",
      "source": "https://sketchfab.com/3d-models/t-shirt-on-hanger-5263eaaaed8041ef8413746306284bb8",
      "title": "T-Shirt On Hanger"
    },
    "generator": "Sketchfab-12.68.0",
    "version": "2.0"
  },
  "bufferViews": [
    {
      "buffer": 0,
      "byteLength": 113400,
      "name": "floatBufferViews",
      "target": 34963
    },
    {
      "buffer": 0,
      "byteLength": 19408,
      "byteOffset": 113400,
      "byteStride": 8,
      "name": "floatBufferViews",
      "target": 34962
    },
    {
      "buffer": 0,
      "byteLength": 126864,
      "byteOffset": 132808,
      "byteStride": 12,
      "name": "floatBufferViews",
      "target": 34962
    }
  ],
  "buffers": [
    {
      "byteLength": 259672,
      "uri": "scene.bin"
    }
  ],
  "materials": [
    {
      "doubleSided": true,
      "name": "03___Default",
      "pbrMetallicRoughness": {
        "baseColorFactor": [
          0.5882,
          0.5882,
          0.5882,
          1.0
        ],
        "metallicFactor": 0.0,
        "roughnessFactor": 0.6
      }
    },
    {
      "doubleSided": true,
      "name": "04___Default",
      "pbrMetallicRoughness": {
        "baseColorFactor": [
          0.2157,
          0.2157,
          0.2157,
          1.0
        ],
        "metallicFactor": 0.0,
        "roughnessFactor": 0.6
      }
    }
  ],
  "meshes": [
    {
      "name": "Object_0",
      "primitives": [
        {
          "attributes": {
            "NORMAL": 1,
            "POSITION": 0,
            "TEXCOORD_0": 2
          },
          "indices": 3,
          "material": 0,
          "mode": 4
        }
      ]
    },
    {
      "name": "Object_1",
      "primitives": [
        {
          "attributes": {
            "NORMAL": 5,
            "POSITION": 4
          },
          "indices": 6,
          "material": 1,
          "mode": 4
        }
      ]
    },
    {
      "name": "Object_2",
      "primitives": [
        {
          "attributes": {
            "NORMAL": 8,
            "POSITION": 7
          },
          "indices": 9,
          "material": 1,
          "mode": 4
        }
      ]
    }
  ],
  "nodes": [
    {
      "children": [
        1
      ],
      "matrix": [
        2030.8778076171875,
        0.0,
        0.0,
        0.0,
        0.0,
        4.5094546044337214e-13,
        -2030.8778076171875,
        0.0,
        0.0,
        2030.8778076171875,
        4.5094546044337214e-13,
        0.0,
        0.0,
        0.0,
        0.0,
        1.0
      ],
      "name": "Sketchfab_model"
    },
    {
      "children": [
        2
      ],
      "matrix": [
        1.0,
        0.0,
        0.0,
        0.0,
        0.0,
        1.0,
        0.0,
        0.0,
        0.0,
        0.0,
        1.0,
        0.0,
        -0.2919999957084656,
        -0.05810000002384186,
        -0.630299985408783,
        1.0
      ],
      "name": "Shirt on Hanger.obj.cleaner.materialmerger.gles"
    },
    {
      "children": [
        3,
        4,
        5
      ],
      "name": "Object_2"
    },
    {
      "mesh": 0,
      "name": "Object_3"
    },
    {
      "mesh": 1,
      "name": "Object_4"
    },
    {
      "mesh": 2,
      "name": "Object_5"
    }
  ],
  "scene": 0,
  "scenes": [
    {
      "name": "Sketchfab_Scene",
      "nodes": [
        0
      ]
    }
  ]
}
